<?xml version="1.0" encoding="UTF-8"?><svg id="b" xmlns="http://www.w3.org/2000/svg" viewBox="0 0 61.34 65.76"><defs><style>.d{fill:none;stroke:#231815;stroke-miterlimit:10;stroke-width:.64px;}</style></defs><g id="c"><path class="d" d="m0,11.63c7.46,0,15.03.1,21.64.1,12.8,0,26.11-.1,39.7-.1"/><path class="d" d="m21.61,0c0,8.86-.12,19.38.03,26.27.13,6.12.37,12.79,1.04,18.87.6,5.44,1.99,10.85,3.48,15.27"/><path class="d" d="m42.72,21.3c-1.77,13.53-10.24,29.54-18.3,35.95-2.99,2.38-6.41,4.48-11.3,4.43-6.45-.07-15.52-5.58-10.16-20.13,2.8-7.61,9.61-13.03,18.65-15.84,9.83-3.05,26.99-2.95,34.55,5.7,5.87,6.71,6.44,16.4,1.52,24.18-3.94,6.23-10.25,9.02-19.89,9.86"/></g></svg>